<?xml version="1.0" encoding="UTF-8" standalone="no"?>
<svg
   version="1"
   viewBox="0 0 100 47.275"
   id="svg4"
   sodipodi:docname="key.svg"
   inkscape:version="1.2.2 (b0a8486541, 2022-12-01)"
   xmlns:inkscape="http://www.inkscape.org/namespaces/inkscape"
   xmlns:sodipodi="http://sodipodi.sourceforge.net/DTD/sodipodi-0.dtd"
   xmlns="http://www.w3.org/2000/svg"
   xmlns:svg="http://www.w3.org/2000/svg">
  <defs
     id="defs8" />
  <sodipodi:namedview
     id="namedview6"
     pagecolor="#505050"
     bordercolor="#eeeeee"
     borderopacity="1"
     inkscape:showpageshadow="0"
     inkscape:pageopacity="0"
     inkscape:pagecheckerboard="0"
     inkscape:deskcolor="#505050"
     showgrid="false"
     inkscape:zoom="13.57"
     inkscape:cx="46.499632"
     inkscape:cy="23.655122"
     inkscape:window-width="2560"
     inkscape:window-height="1355"
     inkscape:window-x="0"
     inkscape:window-y="0"
     inkscape:window-maximized="1"
     inkscape:current-layer="svg4" />
  <path
     d="M98.923 20l-8.05-8.123H43.728C39.698 4.775 32.13-.02 23.448 0 10.505-.027.027 10.56 0 23.6c.03 13.07 10.507 23.655 23.446 23.675 8.66-.014 16.21-4.793 20.247-11.876h9.483l7.512-7.51 5.747 5.747 5.517-5.518 5.67 5.666 5.746-5.744 5.747 5.744 9.81-9.805c1.415-1.476 1.455-2.512-.002-3.982zM13.18 29.807c-3.458-.032-6.24-2.846-6.207-6.286-.032-3.486 2.75-6.3 6.207-6.282 3.4-.02 6.182 2.795 6.208 6.282-.025 3.44-2.806 6.253-6.208 6.286z"
     fill="#010101"
     id="path2"
     style="fill:#d43939;fill-opacity:1" />
</svg>
